<mxfile host="app.diagrams.net" agent="Mozilla/5.0 (Windows NT 10.0; Win64; x64; rv:134.0) Gecko/20100101 Firefox/134.0" version="25.0.3">
  <diagram name="Pagina-1" id="cgrspCmfLuj16MAzu_SN">
    <mxGraphModel dx="3033" dy="1148" grid="1" gridSize="10" guides="1" tooltips="1" connect="1" arrows="1" fold="1" page="1" pageScale="1" pageWidth="827" pageHeight="1169" math="0" shadow="0">
      <root>
        <mxCell id="0" />
        <mxCell id="1" parent="0" />
        <mxCell id="Q1GvDtCiNrD-_h7iwrCt-5" value="" style="ellipse;whiteSpace=wrap;html=1;" vertex="1" parent="1">
          <mxGeometry x="366" y="100" width="95" height="50" as="geometry" />
        </mxCell>
        <mxCell id="Q1GvDtCiNrD-_h7iwrCt-6" value="Arduino" style="text;html=1;align=center;verticalAlign=middle;whiteSpace=wrap;rounded=0;" vertex="1" parent="1">
          <mxGeometry x="384" y="110" width="60" height="30" as="geometry" />
        </mxCell>
        <mxCell id="Q1GvDtCiNrD-_h7iwrCt-7" value="Sd Config" style="rhombus;whiteSpace=wrap;html=1;" vertex="1" parent="1">
          <mxGeometry x="375" y="220" width="80" height="80" as="geometry" />
        </mxCell>
        <mxCell id="Q1GvDtCiNrD-_h7iwrCt-8" value="" style="endArrow=classic;html=1;rounded=0;entryX=0.5;entryY=0;entryDx=0;entryDy=0;exitX=0.5;exitY=1;exitDx=0;exitDy=0;" edge="1" parent="1" source="Q1GvDtCiNrD-_h7iwrCt-5" target="Q1GvDtCiNrD-_h7iwrCt-7">
          <mxGeometry width="50" height="50" relative="1" as="geometry">
            <mxPoint x="300" y="290" as="sourcePoint" />
            <mxPoint x="350" y="240" as="targetPoint" />
          </mxGeometry>
        </mxCell>
        <mxCell id="Q1GvDtCiNrD-_h7iwrCt-9" value="" style="endArrow=classic;html=1;rounded=0;entryX=0.5;entryY=0;entryDx=0;entryDy=0;exitX=0.5;exitY=1;exitDx=0;exitDy=0;" edge="1" parent="1" source="Q1GvDtCiNrD-_h7iwrCt-7" target="Q1GvDtCiNrD-_h7iwrCt-11">
          <mxGeometry relative="1" as="geometry">
            <mxPoint x="280" y="270" as="sourcePoint" />
            <mxPoint x="380" y="270" as="targetPoint" />
          </mxGeometry>
        </mxCell>
        <mxCell id="Q1GvDtCiNrD-_h7iwrCt-10" value="Correct Config" style="edgeLabel;resizable=0;html=1;;align=center;verticalAlign=middle;" connectable="0" vertex="1" parent="Q1GvDtCiNrD-_h7iwrCt-9">
          <mxGeometry relative="1" as="geometry" />
        </mxCell>
        <mxCell id="Q1GvDtCiNrD-_h7iwrCt-11" value="Read file.csv " style="rounded=0;whiteSpace=wrap;html=1;" vertex="1" parent="1">
          <mxGeometry x="355" y="360" width="120" height="60" as="geometry" />
        </mxCell>
        <mxCell id="Q1GvDtCiNrD-_h7iwrCt-13" value="Riconfig Sd" style="rounded=0;whiteSpace=wrap;html=1;" vertex="1" parent="1">
          <mxGeometry x="580" y="230" width="120" height="60" as="geometry" />
        </mxCell>
        <mxCell id="Q1GvDtCiNrD-_h7iwrCt-19" value="" style="endArrow=classic;html=1;rounded=0;entryX=0;entryY=0.5;entryDx=0;entryDy=0;exitX=0.938;exitY=0.5;exitDx=0;exitDy=0;exitPerimeter=0;" edge="1" parent="1" source="Q1GvDtCiNrD-_h7iwrCt-7" target="Q1GvDtCiNrD-_h7iwrCt-13">
          <mxGeometry relative="1" as="geometry">
            <mxPoint x="460" y="260" as="sourcePoint" />
            <mxPoint x="560" y="260" as="targetPoint" />
          </mxGeometry>
        </mxCell>
        <mxCell id="Q1GvDtCiNrD-_h7iwrCt-22" value="Error config" style="edgeLabel;html=1;align=center;verticalAlign=middle;resizable=0;points=[];" vertex="1" connectable="0" parent="Q1GvDtCiNrD-_h7iwrCt-19">
          <mxGeometry x="0.0305" y="-4" relative="1" as="geometry">
            <mxPoint as="offset" />
          </mxGeometry>
        </mxCell>
        <mxCell id="Q1GvDtCiNrD-_h7iwrCt-23" value="" style="endArrow=classic;html=1;rounded=0;exitX=0.5;exitY=0;exitDx=0;exitDy=0;" edge="1" parent="1" source="Q1GvDtCiNrD-_h7iwrCt-13">
          <mxGeometry width="50" height="50" relative="1" as="geometry">
            <mxPoint x="610" y="210" as="sourcePoint" />
            <mxPoint x="420" y="180" as="targetPoint" />
            <Array as="points">
              <mxPoint x="640" y="180" />
            </Array>
          </mxGeometry>
        </mxCell>
        <mxCell id="Q1GvDtCiNrD-_h7iwrCt-32" value="Wifi Connect" style="rhombus;whiteSpace=wrap;html=1;" vertex="1" parent="1">
          <mxGeometry x="368" y="480" width="94" height="80" as="geometry" />
        </mxCell>
        <mxCell id="Q1GvDtCiNrD-_h7iwrCt-33" value="" style="endArrow=classic;html=1;rounded=0;entryX=0.5;entryY=0;entryDx=0;entryDy=0;exitX=0.5;exitY=1;exitDx=0;exitDy=0;" edge="1" parent="1" source="Q1GvDtCiNrD-_h7iwrCt-32" target="Q1GvDtCiNrD-_h7iwrCt-35">
          <mxGeometry relative="1" as="geometry">
            <mxPoint x="300" y="290" as="sourcePoint" />
            <mxPoint x="400" y="290" as="targetPoint" />
          </mxGeometry>
        </mxCell>
        <mxCell id="Q1GvDtCiNrD-_h7iwrCt-34" value="Connect to wifi" style="edgeLabel;resizable=0;html=1;;align=center;verticalAlign=middle;" connectable="0" vertex="1" parent="Q1GvDtCiNrD-_h7iwrCt-33">
          <mxGeometry relative="1" as="geometry" />
        </mxCell>
        <mxCell id="Q1GvDtCiNrD-_h7iwrCt-35" value="&lt;div&gt;Initialize Webserver,&lt;/div&gt;&lt;div&gt;ipStatico:&lt;/div&gt;&lt;div&gt;192.168.1.184&lt;br&gt;&lt;/div&gt;" style="rounded=0;whiteSpace=wrap;html=1;" vertex="1" parent="1">
          <mxGeometry x="355" y="690" width="120" height="60" as="geometry" />
        </mxCell>
        <mxCell id="Q1GvDtCiNrD-_h7iwrCt-36" value="reconnect to wifi" style="rounded=0;whiteSpace=wrap;html=1;" vertex="1" parent="1">
          <mxGeometry x="590" y="490" width="120" height="60" as="geometry" />
        </mxCell>
        <mxCell id="Q1GvDtCiNrD-_h7iwrCt-37" value="" style="endArrow=classic;html=1;rounded=0;entryX=0;entryY=0.5;entryDx=0;entryDy=0;" edge="1" parent="1" target="Q1GvDtCiNrD-_h7iwrCt-36">
          <mxGeometry relative="1" as="geometry">
            <mxPoint x="460" y="520" as="sourcePoint" />
            <mxPoint x="580" y="280" as="targetPoint" />
          </mxGeometry>
        </mxCell>
        <mxCell id="Q1GvDtCiNrD-_h7iwrCt-38" value="error to connect" style="edgeLabel;html=1;align=center;verticalAlign=middle;resizable=0;points=[];" vertex="1" connectable="0" parent="Q1GvDtCiNrD-_h7iwrCt-37">
          <mxGeometry x="0.0305" y="-4" relative="1" as="geometry">
            <mxPoint as="offset" />
          </mxGeometry>
        </mxCell>
        <mxCell id="Q1GvDtCiNrD-_h7iwrCt-39" value="" style="endArrow=classic;html=1;rounded=0;exitX=0.5;exitY=0;exitDx=0;exitDy=0;" edge="1" parent="1" source="Q1GvDtCiNrD-_h7iwrCt-36">
          <mxGeometry width="50" height="50" relative="1" as="geometry">
            <mxPoint x="630" y="230" as="sourcePoint" />
            <mxPoint x="420" y="450" as="targetPoint" />
            <Array as="points">
              <mxPoint x="650" y="450" />
            </Array>
          </mxGeometry>
        </mxCell>
        <mxCell id="Q1GvDtCiNrD-_h7iwrCt-41" value="" style="endArrow=classic;html=1;rounded=0;entryX=0.5;entryY=0;entryDx=0;entryDy=0;exitX=0.5;exitY=1;exitDx=0;exitDy=0;" edge="1" parent="1" source="Q1GvDtCiNrD-_h7iwrCt-11" target="Q1GvDtCiNrD-_h7iwrCt-32">
          <mxGeometry width="50" height="50" relative="1" as="geometry">
            <mxPoint x="360" y="480" as="sourcePoint" />
            <mxPoint x="410" y="430" as="targetPoint" />
          </mxGeometry>
        </mxCell>
        <mxCell id="Q1GvDtCiNrD-_h7iwrCt-48" value="client" style="rounded=0;whiteSpace=wrap;html=1;" vertex="1" parent="1">
          <mxGeometry x="40" y="810" width="120" height="60" as="geometry" />
        </mxCell>
        <mxCell id="Q1GvDtCiNrD-_h7iwrCt-49" value="" style="endArrow=classic;html=1;rounded=0;entryX=0;entryY=0.5;entryDx=0;entryDy=0;exitX=0.5;exitY=0;exitDx=0;exitDy=0;" edge="1" parent="1" source="Q1GvDtCiNrD-_h7iwrCt-48" target="Q1GvDtCiNrD-_h7iwrCt-35">
          <mxGeometry relative="1" as="geometry">
            <mxPoint x="190" y="780" as="sourcePoint" />
            <mxPoint x="290" y="780" as="targetPoint" />
            <Array as="points">
              <mxPoint x="100" y="720" />
            </Array>
          </mxGeometry>
        </mxCell>
        <mxCell id="Q1GvDtCiNrD-_h7iwrCt-50" value="(GET)http://192.168.1.184 /op=r_1" style="edgeLabel;resizable=0;html=1;;align=center;verticalAlign=middle;" connectable="0" vertex="1" parent="Q1GvDtCiNrD-_h7iwrCt-49">
          <mxGeometry relative="1" as="geometry">
            <mxPoint x="37" as="offset" />
          </mxGeometry>
        </mxCell>
        <mxCell id="Q1GvDtCiNrD-_h7iwrCt-51" value="&lt;div&gt;&lt;br&gt;&lt;/div&gt;&lt;div&gt;&lt;br&gt;&lt;/div&gt;" style="edgeLabel;html=1;align=center;verticalAlign=middle;resizable=0;points=[];" vertex="1" connectable="0" parent="Q1GvDtCiNrD-_h7iwrCt-49">
          <mxGeometry x="0.0094" y="-4" relative="1" as="geometry">
            <mxPoint as="offset" />
          </mxGeometry>
        </mxCell>
        <mxCell id="Q1GvDtCiNrD-_h7iwrCt-52" value="" style="endArrow=classic;html=1;rounded=0;exitX=0;exitY=0.75;exitDx=0;exitDy=0;entryX=0.75;entryY=0;entryDx=0;entryDy=0;" edge="1" parent="1" source="Q1GvDtCiNrD-_h7iwrCt-35" target="Q1GvDtCiNrD-_h7iwrCt-48">
          <mxGeometry relative="1" as="geometry">
            <mxPoint x="420" y="840" as="sourcePoint" />
            <mxPoint x="520" y="840" as="targetPoint" />
            <Array as="points">
              <mxPoint x="130" y="735" />
            </Array>
          </mxGeometry>
        </mxCell>
        <mxCell id="Q1GvDtCiNrD-_h7iwrCt-53" value="Response" style="edgeLabel;resizable=0;html=1;;align=center;verticalAlign=middle;" connectable="0" vertex="1" parent="Q1GvDtCiNrD-_h7iwrCt-52">
          <mxGeometry relative="1" as="geometry">
            <mxPoint x="15" y="5" as="offset" />
          </mxGeometry>
        </mxCell>
        <mxCell id="Q1GvDtCiNrD-_h7iwrCt-72" value="Response" style="swimlane;fontStyle=0;childLayout=stackLayout;horizontal=1;startSize=26;horizontalStack=0;resizeParent=1;resizeParentMax=0;resizeLast=0;collapsible=1;marginBottom=0;align=center;fontSize=14;" vertex="1" collapsed="1" parent="1">
          <mxGeometry x="180" y="680" width="100" height="30" as="geometry">
            <mxRectangle x="50" y="780" width="160" height="236" as="alternateBounds" />
          </mxGeometry>
        </mxCell>
        <mxCell id="Q1GvDtCiNrD-_h7iwrCt-83" value="status(bool)" style="text;strokeColor=none;fillColor=none;spacingLeft=4;spacingRight=4;overflow=hidden;rotatable=0;points=[[0,0.5],[1,0.5]];portConstraint=eastwest;fontSize=12;whiteSpace=wrap;html=1;" vertex="1" parent="Q1GvDtCiNrD-_h7iwrCt-72">
          <mxGeometry y="26" width="160" height="30" as="geometry" />
        </mxCell>
        <mxCell id="Q1GvDtCiNrD-_h7iwrCt-73" value="xdelay (float)" style="text;strokeColor=none;fillColor=none;spacingLeft=4;spacingRight=4;overflow=hidden;rotatable=0;points=[[0,0.5],[1,0.5]];portConstraint=eastwest;fontSize=12;whiteSpace=wrap;html=1;" vertex="1" parent="Q1GvDtCiNrD-_h7iwrCt-72">
          <mxGeometry y="56" width="160" height="30" as="geometry" />
        </mxCell>
        <mxCell id="Q1GvDtCiNrD-_h7iwrCt-74" value="&lt;div&gt;ydelay (float)&lt;/div&gt;&lt;div&gt;&lt;br&gt;&lt;/div&gt;" style="text;strokeColor=none;fillColor=none;spacingLeft=4;spacingRight=4;overflow=hidden;rotatable=0;points=[[0,0.5],[1,0.5]];portConstraint=eastwest;fontSize=12;whiteSpace=wrap;html=1;" vertex="1" parent="Q1GvDtCiNrD-_h7iwrCt-72">
          <mxGeometry y="86" width="160" height="30" as="geometry" />
        </mxCell>
        <mxCell id="Q1GvDtCiNrD-_h7iwrCt-75" value="zdelay (float)" style="text;strokeColor=none;fillColor=none;spacingLeft=4;spacingRight=4;overflow=hidden;rotatable=0;points=[[0,0.5],[1,0.5]];portConstraint=eastwest;fontSize=12;whiteSpace=wrap;html=1;" vertex="1" parent="Q1GvDtCiNrD-_h7iwrCt-72">
          <mxGeometry y="116" width="160" height="30" as="geometry" />
        </mxCell>
        <mxCell id="Q1GvDtCiNrD-_h7iwrCt-80" value="xacc (int)" style="text;strokeColor=none;fillColor=none;spacingLeft=4;spacingRight=4;overflow=hidden;rotatable=0;points=[[0,0.5],[1,0.5]];portConstraint=eastwest;fontSize=12;whiteSpace=wrap;html=1;" vertex="1" parent="Q1GvDtCiNrD-_h7iwrCt-72">
          <mxGeometry y="146" width="160" height="30" as="geometry" />
        </mxCell>
        <mxCell id="Q1GvDtCiNrD-_h7iwrCt-82" value="yacc (int)" style="text;strokeColor=none;fillColor=none;spacingLeft=4;spacingRight=4;overflow=hidden;rotatable=0;points=[[0,0.5],[1,0.5]];portConstraint=eastwest;fontSize=12;whiteSpace=wrap;html=1;" vertex="1" parent="Q1GvDtCiNrD-_h7iwrCt-72">
          <mxGeometry y="176" width="160" height="30" as="geometry" />
        </mxCell>
        <mxCell id="Q1GvDtCiNrD-_h7iwrCt-81" value="zacc (int)" style="text;strokeColor=none;fillColor=none;spacingLeft=4;spacingRight=4;overflow=hidden;rotatable=0;points=[[0,0.5],[1,0.5]];portConstraint=eastwest;fontSize=12;whiteSpace=wrap;html=1;" vertex="1" parent="Q1GvDtCiNrD-_h7iwrCt-72">
          <mxGeometry y="206" width="160" height="30" as="geometry" />
        </mxCell>
        <mxCell id="Q1GvDtCiNrD-_h7iwrCt-85" value="" style="endArrow=classic;html=1;rounded=0;entryX=0.25;entryY=1;entryDx=0;entryDy=0;exitX=1;exitY=0.75;exitDx=0;exitDy=0;" edge="1" parent="1" source="Q1GvDtCiNrD-_h7iwrCt-48" target="Q1GvDtCiNrD-_h7iwrCt-35">
          <mxGeometry relative="1" as="geometry">
            <mxPoint x="189" y="880" as="sourcePoint" />
            <mxPoint x="384" y="790" as="targetPoint" />
            <Array as="points">
              <mxPoint x="270" y="855" />
              <mxPoint x="385" y="850" />
            </Array>
          </mxGeometry>
        </mxCell>
        <mxCell id="Q1GvDtCiNrD-_h7iwrCt-86" value="(GET)http://192.168.1.184 /op=r_3" style="edgeLabel;resizable=0;html=1;;align=center;verticalAlign=middle;" connectable="0" vertex="1" parent="Q1GvDtCiNrD-_h7iwrCt-85">
          <mxGeometry relative="1" as="geometry" />
        </mxCell>
        <mxCell id="Q1GvDtCiNrD-_h7iwrCt-87" value="&lt;div&gt;&lt;br&gt;&lt;/div&gt;&lt;div&gt;&lt;br&gt;&lt;/div&gt;" style="edgeLabel;html=1;align=center;verticalAlign=middle;resizable=0;points=[];" vertex="1" connectable="0" parent="Q1GvDtCiNrD-_h7iwrCt-85">
          <mxGeometry x="0.0094" y="-4" relative="1" as="geometry">
            <mxPoint as="offset" />
          </mxGeometry>
        </mxCell>
        <mxCell id="Q1GvDtCiNrD-_h7iwrCt-88" value="" style="endArrow=classic;html=1;rounded=0;exitX=0.133;exitY=1;exitDx=0;exitDy=0;entryX=1;entryY=0.5;entryDx=0;entryDy=0;exitPerimeter=0;" edge="1" parent="1" source="Q1GvDtCiNrD-_h7iwrCt-35" target="Q1GvDtCiNrD-_h7iwrCt-48">
          <mxGeometry relative="1" as="geometry">
            <mxPoint x="475" y="840" as="sourcePoint" />
            <mxPoint x="280" y="930" as="targetPoint" />
            <Array as="points">
              <mxPoint x="371" y="840" />
            </Array>
          </mxGeometry>
        </mxCell>
        <mxCell id="Q1GvDtCiNrD-_h7iwrCt-89" value="Response" style="edgeLabel;resizable=0;html=1;;align=center;verticalAlign=middle;" connectable="0" vertex="1" parent="Q1GvDtCiNrD-_h7iwrCt-88">
          <mxGeometry relative="1" as="geometry" />
        </mxCell>
        <mxCell id="Q1GvDtCiNrD-_h7iwrCt-90" value="Response" style="swimlane;fontStyle=0;childLayout=stackLayout;horizontal=1;startSize=26;horizontalStack=0;resizeParent=1;resizeParentMax=0;resizeLast=0;collapsible=1;marginBottom=0;align=center;fontSize=14;" vertex="1" collapsed="1" parent="1">
          <mxGeometry x="260" y="800" width="100" height="30" as="geometry">
            <mxRectangle x="275" y="880" width="160" height="206" as="alternateBounds" />
          </mxGeometry>
        </mxCell>
        <mxCell id="Q1GvDtCiNrD-_h7iwrCt-91" value="x (int)" style="text;strokeColor=none;fillColor=none;spacingLeft=4;spacingRight=4;overflow=hidden;rotatable=0;points=[[0,0.5],[1,0.5]];portConstraint=eastwest;fontSize=12;whiteSpace=wrap;html=1;" vertex="1" parent="Q1GvDtCiNrD-_h7iwrCt-90">
          <mxGeometry y="26" width="160" height="30" as="geometry" />
        </mxCell>
        <mxCell id="Q1GvDtCiNrD-_h7iwrCt-92" value="y (int)" style="text;strokeColor=none;fillColor=none;spacingLeft=4;spacingRight=4;overflow=hidden;rotatable=0;points=[[0,0.5],[1,0.5]];portConstraint=eastwest;fontSize=12;whiteSpace=wrap;html=1;" vertex="1" parent="Q1GvDtCiNrD-_h7iwrCt-90">
          <mxGeometry y="56" width="160" height="30" as="geometry" />
        </mxCell>
        <mxCell id="Q1GvDtCiNrD-_h7iwrCt-100" value="z (int)" style="text;strokeColor=none;fillColor=none;spacingLeft=4;spacingRight=4;overflow=hidden;rotatable=0;points=[[0,0.5],[1,0.5]];portConstraint=eastwest;fontSize=12;whiteSpace=wrap;html=1;" vertex="1" parent="Q1GvDtCiNrD-_h7iwrCt-90">
          <mxGeometry y="86" width="160" height="30" as="geometry" />
        </mxCell>
        <mxCell id="Q1GvDtCiNrD-_h7iwrCt-99" value="name (string)" style="text;strokeColor=none;fillColor=none;spacingLeft=4;spacingRight=4;overflow=hidden;rotatable=0;points=[[0,0.5],[1,0.5]];portConstraint=eastwest;fontSize=12;whiteSpace=wrap;html=1;" vertex="1" parent="Q1GvDtCiNrD-_h7iwrCt-90">
          <mxGeometry y="116" width="160" height="30" as="geometry" />
        </mxCell>
        <mxCell id="Q1GvDtCiNrD-_h7iwrCt-101" value="count (int)" style="text;strokeColor=none;fillColor=none;spacingLeft=4;spacingRight=4;overflow=hidden;rotatable=0;points=[[0,0.5],[1,0.5]];portConstraint=eastwest;fontSize=12;whiteSpace=wrap;html=1;" vertex="1" parent="Q1GvDtCiNrD-_h7iwrCt-90">
          <mxGeometry y="146" width="160" height="30" as="geometry" />
        </mxCell>
        <mxCell id="Q1GvDtCiNrD-_h7iwrCt-98" value="code (string)" style="text;strokeColor=none;fillColor=none;spacingLeft=4;spacingRight=4;overflow=hidden;rotatable=0;points=[[0,0.5],[1,0.5]];portConstraint=eastwest;fontSize=12;whiteSpace=wrap;html=1;" vertex="1" parent="Q1GvDtCiNrD-_h7iwrCt-90">
          <mxGeometry y="176" width="160" height="30" as="geometry" />
        </mxCell>
        <mxCell id="Q1GvDtCiNrD-_h7iwrCt-102" value="" style="endArrow=classic;html=1;rounded=0;exitX=0.25;exitY=1;exitDx=0;exitDy=0;entryX=0.5;entryY=1;entryDx=0;entryDy=0;" edge="1" parent="1" source="Q1GvDtCiNrD-_h7iwrCt-48" target="Q1GvDtCiNrD-_h7iwrCt-122">
          <mxGeometry relative="1" as="geometry">
            <mxPoint x="10" y="685" as="sourcePoint" />
            <mxPoint x="600" y="800" as="targetPoint" />
            <Array as="points">
              <mxPoint x="70" y="920" />
              <mxPoint x="260" y="920" />
              <mxPoint x="570" y="920" />
            </Array>
          </mxGeometry>
        </mxCell>
        <mxCell id="Q1GvDtCiNrD-_h7iwrCt-103" value="(POST)http://192.168.1.184 /op=w_2" style="edgeLabel;resizable=0;html=1;;align=center;verticalAlign=middle;" connectable="0" vertex="1" parent="Q1GvDtCiNrD-_h7iwrCt-102">
          <mxGeometry relative="1" as="geometry">
            <mxPoint x="-55" as="offset" />
          </mxGeometry>
        </mxCell>
        <mxCell id="Q1GvDtCiNrD-_h7iwrCt-104" value="&lt;div&gt;&lt;br&gt;&lt;/div&gt;&lt;div&gt;&lt;br&gt;&lt;/div&gt;" style="edgeLabel;html=1;align=center;verticalAlign=middle;resizable=0;points=[];" vertex="1" connectable="0" parent="Q1GvDtCiNrD-_h7iwrCt-102">
          <mxGeometry x="0.0094" y="-4" relative="1" as="geometry">
            <mxPoint as="offset" />
          </mxGeometry>
        </mxCell>
        <mxCell id="Q1GvDtCiNrD-_h7iwrCt-112" value="Send Data" style="swimlane;fontStyle=0;childLayout=stackLayout;horizontal=1;startSize=26;horizontalStack=0;resizeParent=1;resizeParentMax=0;resizeLast=0;collapsible=1;marginBottom=0;align=center;fontSize=14;" vertex="1" collapsed="1" parent="1">
          <mxGeometry x="260" y="880" width="100" height="30" as="geometry">
            <mxRectangle x="236" y="950" width="160" height="206" as="alternateBounds" />
          </mxGeometry>
        </mxCell>
        <mxCell id="Q1GvDtCiNrD-_h7iwrCt-114" value="xdelay (float)" style="text;strokeColor=none;fillColor=none;spacingLeft=4;spacingRight=4;overflow=hidden;rotatable=0;points=[[0,0.5],[1,0.5]];portConstraint=eastwest;fontSize=12;whiteSpace=wrap;html=1;" vertex="1" parent="Q1GvDtCiNrD-_h7iwrCt-112">
          <mxGeometry y="26" width="160" height="30" as="geometry" />
        </mxCell>
        <mxCell id="Q1GvDtCiNrD-_h7iwrCt-115" value="&lt;div&gt;ydelay (float)&lt;/div&gt;&lt;div&gt;&lt;br&gt;&lt;/div&gt;" style="text;strokeColor=none;fillColor=none;spacingLeft=4;spacingRight=4;overflow=hidden;rotatable=0;points=[[0,0.5],[1,0.5]];portConstraint=eastwest;fontSize=12;whiteSpace=wrap;html=1;" vertex="1" parent="Q1GvDtCiNrD-_h7iwrCt-112">
          <mxGeometry y="56" width="160" height="30" as="geometry" />
        </mxCell>
        <mxCell id="Q1GvDtCiNrD-_h7iwrCt-116" value="zdelay (float)" style="text;strokeColor=none;fillColor=none;spacingLeft=4;spacingRight=4;overflow=hidden;rotatable=0;points=[[0,0.5],[1,0.5]];portConstraint=eastwest;fontSize=12;whiteSpace=wrap;html=1;" vertex="1" parent="Q1GvDtCiNrD-_h7iwrCt-112">
          <mxGeometry y="86" width="160" height="30" as="geometry" />
        </mxCell>
        <mxCell id="Q1GvDtCiNrD-_h7iwrCt-117" value="xacc (int)" style="text;strokeColor=none;fillColor=none;spacingLeft=4;spacingRight=4;overflow=hidden;rotatable=0;points=[[0,0.5],[1,0.5]];portConstraint=eastwest;fontSize=12;whiteSpace=wrap;html=1;" vertex="1" parent="Q1GvDtCiNrD-_h7iwrCt-112">
          <mxGeometry y="116" width="160" height="30" as="geometry" />
        </mxCell>
        <mxCell id="Q1GvDtCiNrD-_h7iwrCt-118" value="yacc (int)" style="text;strokeColor=none;fillColor=none;spacingLeft=4;spacingRight=4;overflow=hidden;rotatable=0;points=[[0,0.5],[1,0.5]];portConstraint=eastwest;fontSize=12;whiteSpace=wrap;html=1;" vertex="1" parent="Q1GvDtCiNrD-_h7iwrCt-112">
          <mxGeometry y="146" width="160" height="30" as="geometry" />
        </mxCell>
        <mxCell id="Q1GvDtCiNrD-_h7iwrCt-119" value="zacc (int)" style="text;strokeColor=none;fillColor=none;spacingLeft=4;spacingRight=4;overflow=hidden;rotatable=0;points=[[0,0.5],[1,0.5]];portConstraint=eastwest;fontSize=12;whiteSpace=wrap;html=1;" vertex="1" parent="Q1GvDtCiNrD-_h7iwrCt-112">
          <mxGeometry y="176" width="160" height="30" as="geometry" />
        </mxCell>
        <mxCell id="Q1GvDtCiNrD-_h7iwrCt-121" value="" style="endArrow=none;html=1;rounded=0;entryX=0;entryY=0.5;entryDx=0;entryDy=0;exitX=1;exitY=0.5;exitDx=0;exitDy=0;" edge="1" parent="1" source="Q1GvDtCiNrD-_h7iwrCt-35">
          <mxGeometry width="50" height="50" relative="1" as="geometry">
            <mxPoint x="450" y="1010" as="sourcePoint" />
            <mxPoint x="530" y="720" as="targetPoint" />
          </mxGeometry>
        </mxCell>
        <mxCell id="Q1GvDtCiNrD-_h7iwrCt-122" value="Save data" style="rhombus;whiteSpace=wrap;html=1;" vertex="1" parent="1">
          <mxGeometry x="530" y="680" width="80" height="80" as="geometry" />
        </mxCell>
        <mxCell id="Q1GvDtCiNrD-_h7iwrCt-124" value="" style="endArrow=classic;html=1;rounded=0;exitX=1;exitY=0.5;exitDx=0;exitDy=0;entryX=0.133;entryY=0.983;entryDx=0;entryDy=0;entryPerimeter=0;" edge="1" parent="1" source="Q1GvDtCiNrD-_h7iwrCt-122" target="Q1GvDtCiNrD-_h7iwrCt-48">
          <mxGeometry relative="1" as="geometry">
            <mxPoint x="580" y="680" as="sourcePoint" />
            <mxPoint x="680" y="720" as="targetPoint" />
            <Array as="points">
              <mxPoint x="610" y="940" />
              <mxPoint x="56" y="940" />
            </Array>
          </mxGeometry>
        </mxCell>
        <mxCell id="Q1GvDtCiNrD-_h7iwrCt-125" value="Erro to save" style="edgeLabel;resizable=0;html=1;;align=center;verticalAlign=middle;" connectable="0" vertex="1" parent="Q1GvDtCiNrD-_h7iwrCt-124">
          <mxGeometry relative="1" as="geometry">
            <mxPoint x="-97" as="offset" />
          </mxGeometry>
        </mxCell>
        <mxCell id="Q1GvDtCiNrD-_h7iwrCt-126" value="Response" style="swimlane;fontStyle=0;childLayout=stackLayout;horizontal=1;startSize=26;horizontalStack=0;resizeParent=1;resizeParentMax=0;resizeLast=0;collapsible=1;marginBottom=0;align=center;fontSize=14;" vertex="1" collapsed="1" parent="1">
          <mxGeometry x="375" y="880" width="100" height="30" as="geometry">
            <mxRectangle x="260" y="950" width="160" height="56" as="alternateBounds" />
          </mxGeometry>
        </mxCell>
        <mxCell id="Q1GvDtCiNrD-_h7iwrCt-127" value="fail" style="text;strokeColor=none;fillColor=none;spacingLeft=4;spacingRight=4;overflow=hidden;rotatable=0;points=[[0,0.5],[1,0.5]];portConstraint=eastwest;fontSize=12;whiteSpace=wrap;html=1;" vertex="1" parent="Q1GvDtCiNrD-_h7iwrCt-126">
          <mxGeometry y="26" width="160" height="30" as="geometry" />
        </mxCell>
        <mxCell id="Q1GvDtCiNrD-_h7iwrCt-143" value="Wifi Connect" style="rhombus;whiteSpace=wrap;html=1;" vertex="1" parent="1">
          <mxGeometry x="798.75" y="350" width="97.5" height="80" as="geometry" />
        </mxCell>
        <mxCell id="Q1GvDtCiNrD-_h7iwrCt-145" value="&lt;div&gt;Initialize Webserver,&lt;/div&gt;&lt;div&gt;ipStatico:&lt;/div&gt;&lt;div&gt;192.168.1.185&lt;/div&gt;&lt;div&gt;192.168.1.186&lt;/div&gt;&lt;div&gt;192.168.1.187&lt;br&gt;&lt;/div&gt;" style="rounded=0;whiteSpace=wrap;html=1;" vertex="1" parent="1">
          <mxGeometry x="789" y="490" width="120" height="80" as="geometry" />
        </mxCell>
        <mxCell id="Q1GvDtCiNrD-_h7iwrCt-146" value="reconnect to wifi" style="rounded=0;whiteSpace=wrap;html=1;" vertex="1" parent="1">
          <mxGeometry x="1020" y="360" width="120" height="60" as="geometry" />
        </mxCell>
        <mxCell id="Q1GvDtCiNrD-_h7iwrCt-147" value="" style="endArrow=classic;html=1;rounded=0;entryX=0;entryY=0.5;entryDx=0;entryDy=0;exitX=1;exitY=0.5;exitDx=0;exitDy=0;" edge="1" parent="1" source="Q1GvDtCiNrD-_h7iwrCt-143" target="Q1GvDtCiNrD-_h7iwrCt-146">
          <mxGeometry relative="1" as="geometry">
            <mxPoint x="890" y="390" as="sourcePoint" />
            <mxPoint x="1015" y="280" as="targetPoint" />
          </mxGeometry>
        </mxCell>
        <mxCell id="Q1GvDtCiNrD-_h7iwrCt-148" value="error to connect" style="edgeLabel;html=1;align=center;verticalAlign=middle;resizable=0;points=[];" vertex="1" connectable="0" parent="Q1GvDtCiNrD-_h7iwrCt-147">
          <mxGeometry x="0.0305" y="-4" relative="1" as="geometry">
            <mxPoint as="offset" />
          </mxGeometry>
        </mxCell>
        <mxCell id="Q1GvDtCiNrD-_h7iwrCt-149" value="" style="endArrow=classic;html=1;rounded=0;exitX=0.5;exitY=0;exitDx=0;exitDy=0;" edge="1" parent="1" source="Q1GvDtCiNrD-_h7iwrCt-146">
          <mxGeometry width="50" height="50" relative="1" as="geometry">
            <mxPoint x="1065" y="230" as="sourcePoint" />
            <mxPoint x="850" y="320" as="targetPoint" />
            <Array as="points">
              <mxPoint x="1080" y="320" />
            </Array>
          </mxGeometry>
        </mxCell>
        <mxCell id="Q1GvDtCiNrD-_h7iwrCt-150" value="" style="endArrow=classic;html=1;rounded=0;entryX=0.5;entryY=0;entryDx=0;entryDy=0;exitX=0.5;exitY=1;exitDx=0;exitDy=0;" edge="1" parent="1" source="Q1GvDtCiNrD-_h7iwrCt-151" target="Q1GvDtCiNrD-_h7iwrCt-143">
          <mxGeometry width="50" height="50" relative="1" as="geometry">
            <mxPoint x="848" y="290" as="sourcePoint" />
            <mxPoint x="845" y="430" as="targetPoint" />
          </mxGeometry>
        </mxCell>
        <mxCell id="Q1GvDtCiNrD-_h7iwrCt-151" value="" style="ellipse;whiteSpace=wrap;html=1;" vertex="1" parent="1">
          <mxGeometry x="800" y="100" width="95" height="50" as="geometry" />
        </mxCell>
        <mxCell id="Q1GvDtCiNrD-_h7iwrCt-152" value="M5Stack" style="text;html=1;align=center;verticalAlign=middle;whiteSpace=wrap;rounded=0;" vertex="1" parent="1">
          <mxGeometry x="819" y="110" width="60" height="30" as="geometry" />
        </mxCell>
        <mxCell id="Q1GvDtCiNrD-_h7iwrCt-153" value="" style="endArrow=classic;html=1;rounded=0;exitX=0.5;exitY=1;exitDx=0;exitDy=0;entryX=0.5;entryY=0;entryDx=0;entryDy=0;" edge="1" parent="1" target="Q1GvDtCiNrD-_h7iwrCt-145">
          <mxGeometry relative="1" as="geometry">
            <mxPoint x="848.5" y="430" as="sourcePoint" />
            <mxPoint x="850" y="500" as="targetPoint" />
          </mxGeometry>
        </mxCell>
        <mxCell id="Q1GvDtCiNrD-_h7iwrCt-154" value="Connect to wifi" style="edgeLabel;resizable=0;html=1;;align=center;verticalAlign=middle;" connectable="0" vertex="1" parent="Q1GvDtCiNrD-_h7iwrCt-153">
          <mxGeometry relative="1" as="geometry" />
        </mxCell>
        <mxCell id="Q1GvDtCiNrD-_h7iwrCt-155" value="" style="endArrow=classic;html=1;rounded=0;entryX=0.5;entryY=1;entryDx=0;entryDy=0;exitX=0;exitY=1;exitDx=0;exitDy=0;" edge="1" parent="1" source="Q1GvDtCiNrD-_h7iwrCt-48" target="Q1GvDtCiNrD-_h7iwrCt-145">
          <mxGeometry relative="1" as="geometry">
            <mxPoint x="40" y="1000" as="sourcePoint" />
            <mxPoint x="945" y="710" as="targetPoint" />
            <Array as="points">
              <mxPoint x="20" y="870" />
              <mxPoint x="20" y="940" />
              <mxPoint x="20" y="1000" />
              <mxPoint x="850" y="1000" />
            </Array>
          </mxGeometry>
        </mxCell>
        <mxCell id="Q1GvDtCiNrD-_h7iwrCt-156" value="(GET)http://192.168.1.185/op=rx_1 - http://192.168.1.186/op=ry_1 - http://192.168.1.187/op=rz_1" style="edgeLabel;resizable=0;html=1;;align=center;verticalAlign=middle;" connectable="0" vertex="1" parent="Q1GvDtCiNrD-_h7iwrCt-155">
          <mxGeometry relative="1" as="geometry">
            <mxPoint x="-255" as="offset" />
          </mxGeometry>
        </mxCell>
        <mxCell id="Q1GvDtCiNrD-_h7iwrCt-157" value="&lt;div&gt;&lt;br&gt;&lt;/div&gt;&lt;div&gt;&lt;br&gt;&lt;/div&gt;" style="edgeLabel;html=1;align=center;verticalAlign=middle;resizable=0;points=[];" vertex="1" connectable="0" parent="Q1GvDtCiNrD-_h7iwrCt-155">
          <mxGeometry x="0.0094" y="-4" relative="1" as="geometry">
            <mxPoint as="offset" />
          </mxGeometry>
        </mxCell>
        <mxCell id="Q1GvDtCiNrD-_h7iwrCt-159" value="" style="endArrow=classic;html=1;rounded=0;entryX=0;entryY=0.75;entryDx=0;entryDy=0;exitX=0.658;exitY=1.017;exitDx=0;exitDy=0;exitPerimeter=0;" edge="1" parent="1" source="Q1GvDtCiNrD-_h7iwrCt-145" target="Q1GvDtCiNrD-_h7iwrCt-48">
          <mxGeometry relative="1" as="geometry">
            <mxPoint x="870" y="560" as="sourcePoint" />
            <mxPoint x="660" y="640" as="targetPoint" />
            <Array as="points">
              <mxPoint x="870" y="1020" />
              <mxPoint x="10" y="1020" />
              <mxPoint x="10" y="855" />
            </Array>
          </mxGeometry>
        </mxCell>
        <mxCell id="Q1GvDtCiNrD-_h7iwrCt-160" value="Response" style="edgeLabel;resizable=0;html=1;;align=center;verticalAlign=middle;" connectable="0" vertex="1" parent="Q1GvDtCiNrD-_h7iwrCt-159">
          <mxGeometry relative="1" as="geometry">
            <mxPoint x="-248" as="offset" />
          </mxGeometry>
        </mxCell>
        <mxCell id="Q1GvDtCiNrD-_h7iwrCt-161" value="Response" style="swimlane;fontStyle=0;childLayout=stackLayout;horizontal=1;startSize=26;horizontalStack=0;resizeParent=1;resizeParentMax=0;resizeLast=0;collapsible=1;marginBottom=0;align=center;fontSize=14;" vertex="1" collapsed="1" parent="1">
          <mxGeometry x="290" y="960" width="100" height="30" as="geometry">
            <mxRectangle x="420" y="950" width="160" height="146" as="alternateBounds" />
          </mxGeometry>
        </mxCell>
        <mxCell id="Q1GvDtCiNrD-_h7iwrCt-163" value="xtime(float)" style="text;strokeColor=none;fillColor=none;spacingLeft=4;spacingRight=4;overflow=hidden;rotatable=0;points=[[0,0.5],[1,0.5]];portConstraint=eastwest;fontSize=12;whiteSpace=wrap;html=1;" vertex="1" parent="Q1GvDtCiNrD-_h7iwrCt-161">
          <mxGeometry y="26" width="160" height="30" as="geometry" />
        </mxCell>
        <mxCell id="Q1GvDtCiNrD-_h7iwrCt-164" value="&lt;div&gt;xstep(int)&lt;/div&gt;&lt;div&gt;&lt;br&gt;&lt;/div&gt;" style="text;strokeColor=none;fillColor=none;spacingLeft=4;spacingRight=4;overflow=hidden;rotatable=0;points=[[0,0.5],[1,0.5]];portConstraint=eastwest;fontSize=12;whiteSpace=wrap;html=1;" vertex="1" parent="Q1GvDtCiNrD-_h7iwrCt-161">
          <mxGeometry y="56" width="160" height="30" as="geometry" />
        </mxCell>
        <mxCell id="Q1GvDtCiNrD-_h7iwrCt-165" value="xcoordinate (int)" style="text;strokeColor=none;fillColor=none;spacingLeft=4;spacingRight=4;overflow=hidden;rotatable=0;points=[[0,0.5],[1,0.5]];portConstraint=eastwest;fontSize=12;whiteSpace=wrap;html=1;" vertex="1" parent="Q1GvDtCiNrD-_h7iwrCt-161">
          <mxGeometry y="86" width="160" height="30" as="geometry" />
        </mxCell>
        <mxCell id="Q1GvDtCiNrD-_h7iwrCt-166" value="xrun (bool)" style="text;strokeColor=none;fillColor=none;spacingLeft=4;spacingRight=4;overflow=hidden;rotatable=0;points=[[0,0.5],[1,0.5]];portConstraint=eastwest;fontSize=12;whiteSpace=wrap;html=1;" vertex="1" parent="Q1GvDtCiNrD-_h7iwrCt-161">
          <mxGeometry y="116" width="160" height="30" as="geometry" />
        </mxCell>
        <mxCell id="Q1GvDtCiNrD-_h7iwrCt-169" value="" style="endArrow=classic;html=1;rounded=0;exitX=0;exitY=0.5;exitDx=0;exitDy=0;entryX=0.5;entryY=1;entryDx=0;entryDy=0;" edge="1" parent="1" source="Q1GvDtCiNrD-_h7iwrCt-48" target="Q1GvDtCiNrD-_h7iwrCt-177">
          <mxGeometry width="50" height="50" relative="1" as="geometry">
            <mxPoint x="430" y="780" as="sourcePoint" />
            <mxPoint x="950" y="580" as="targetPoint" />
            <Array as="points">
              <mxPoint x="-50" y="840" />
              <mxPoint x="-50" y="1080" />
              <mxPoint x="1010" y="1080" />
            </Array>
          </mxGeometry>
        </mxCell>
        <mxCell id="Q1GvDtCiNrD-_h7iwrCt-170" value="(POST)http://192.168.1.185/op=wx_3 - http://192.168.1.186/op=wx_3 -&amp;nbsp;http://192.168.1.187/wz_3 " style="edgeLabel;html=1;align=center;verticalAlign=middle;resizable=0;points=[];" vertex="1" connectable="0" parent="Q1GvDtCiNrD-_h7iwrCt-169">
          <mxGeometry x="-0.2606" y="-3" relative="1" as="geometry">
            <mxPoint x="-32" as="offset" />
          </mxGeometry>
        </mxCell>
        <mxCell id="Q1GvDtCiNrD-_h7iwrCt-171" value="Send Data" style="swimlane;fontStyle=0;childLayout=stackLayout;horizontal=1;startSize=26;horizontalStack=0;resizeParent=1;resizeParentMax=0;resizeLast=0;collapsible=1;marginBottom=0;align=center;fontSize=14;" vertex="1" collapsed="1" parent="1">
          <mxGeometry x="250" y="1040" width="100" height="30" as="geometry">
            <mxRectangle x="330" y="1040" width="160" height="56" as="alternateBounds" />
          </mxGeometry>
        </mxCell>
        <mxCell id="Q1GvDtCiNrD-_h7iwrCt-172" value="x(int)" style="text;strokeColor=none;fillColor=none;spacingLeft=4;spacingRight=4;overflow=hidden;rotatable=0;points=[[0,0.5],[1,0.5]];portConstraint=eastwest;fontSize=12;whiteSpace=wrap;html=1;" vertex="1" parent="Q1GvDtCiNrD-_h7iwrCt-171">
          <mxGeometry y="26" width="160" height="30" as="geometry" />
        </mxCell>
        <mxCell id="Q1GvDtCiNrD-_h7iwrCt-177" value="MOVE" style="rhombus;whiteSpace=wrap;html=1;" vertex="1" parent="1">
          <mxGeometry x="970" y="490" width="80" height="80" as="geometry" />
        </mxCell>
        <mxCell id="Q1GvDtCiNrD-_h7iwrCt-178" value="" style="endArrow=none;html=1;rounded=0;entryX=0;entryY=0.5;entryDx=0;entryDy=0;exitX=1;exitY=0.5;exitDx=0;exitDy=0;" edge="1" parent="1" source="Q1GvDtCiNrD-_h7iwrCt-145" target="Q1GvDtCiNrD-_h7iwrCt-177">
          <mxGeometry width="50" height="50" relative="1" as="geometry">
            <mxPoint x="920" y="560" as="sourcePoint" />
            <mxPoint x="970" y="510" as="targetPoint" />
          </mxGeometry>
        </mxCell>
        <mxCell id="Q1GvDtCiNrD-_h7iwrCt-179" value="" style="endArrow=classic;html=1;rounded=0;exitX=1;exitY=0.5;exitDx=0;exitDy=0;entryX=0;entryY=0.25;entryDx=0;entryDy=0;" edge="1" parent="1" source="Q1GvDtCiNrD-_h7iwrCt-177" target="Q1GvDtCiNrD-_h7iwrCt-48">
          <mxGeometry relative="1" as="geometry">
            <mxPoint x="1210" y="640" as="sourcePoint" />
            <mxPoint x="1310" y="640" as="targetPoint" />
            <Array as="points">
              <mxPoint x="1050" y="1100" />
              <mxPoint x="770" y="1100" />
              <mxPoint x="490" y="1100" />
              <mxPoint x="220" y="1100" />
              <mxPoint x="-60" y="1100" />
              <mxPoint x="-60" y="1040" />
              <mxPoint x="-60" y="970" />
              <mxPoint x="-60" y="825" />
            </Array>
          </mxGeometry>
        </mxCell>
        <mxCell id="Q1GvDtCiNrD-_h7iwrCt-180" value="Error" style="edgeLabel;resizable=0;html=1;;align=center;verticalAlign=middle;" connectable="0" vertex="1" parent="Q1GvDtCiNrD-_h7iwrCt-179">
          <mxGeometry relative="1" as="geometry">
            <mxPoint x="-267" as="offset" />
          </mxGeometry>
        </mxCell>
        <mxCell id="Q1GvDtCiNrD-_h7iwrCt-181" value="Response" style="swimlane;fontStyle=0;childLayout=stackLayout;horizontal=1;startSize=26;horizontalStack=0;resizeParent=1;resizeParentMax=0;resizeLast=0;collapsible=1;marginBottom=0;align=center;fontSize=14;" vertex="1" collapsed="1" parent="1">
          <mxGeometry x="360" y="1040" width="100" height="30" as="geometry">
            <mxRectangle x="260" y="950" width="160" height="56" as="alternateBounds" />
          </mxGeometry>
        </mxCell>
        <mxCell id="Q1GvDtCiNrD-_h7iwrCt-182" value="fail" style="text;strokeColor=none;fillColor=none;spacingLeft=4;spacingRight=4;overflow=hidden;rotatable=0;points=[[0,0.5],[1,0.5]];portConstraint=eastwest;fontSize=12;whiteSpace=wrap;html=1;" vertex="1" parent="Q1GvDtCiNrD-_h7iwrCt-181">
          <mxGeometry y="26" width="160" height="30" as="geometry" />
        </mxCell>
        <mxCell id="Q1GvDtCiNrD-_h7iwrCt-184" value="HR8825" style="rounded=0;whiteSpace=wrap;html=1;" vertex="1" parent="1">
          <mxGeometry x="1190" y="430" width="120" height="60" as="geometry" />
        </mxCell>
        <mxCell id="Q1GvDtCiNrD-_h7iwrCt-185" value="" style="endArrow=classic;html=1;rounded=0;exitX=0.5;exitY=0;exitDx=0;exitDy=0;entryX=0;entryY=0.5;entryDx=0;entryDy=0;" edge="1" parent="1" source="Q1GvDtCiNrD-_h7iwrCt-177" target="Q1GvDtCiNrD-_h7iwrCt-184">
          <mxGeometry width="50" height="50" relative="1" as="geometry">
            <mxPoint x="1090" y="520" as="sourcePoint" />
            <mxPoint x="1140" y="470" as="targetPoint" />
            <Array as="points">
              <mxPoint x="1010" y="460" />
            </Array>
          </mxGeometry>
        </mxCell>
      </root>
    </mxGraphModel>
  </diagram>
</mxfile>
